<svg width="131" height="20" viewBox="0 0 131 20" fill="none" xmlns="http://www.w3.org/2000/svg">
<path d="M13.0002 19V3C13.0002 2.46957 13.2109 1.96086 13.586 1.58579C13.961 1.21071 14.4697 1 15.0002 1C15.5306 1 16.0393 1.21071 16.4144 1.58579C16.7895 1.96086 17.0002 2.46957 17.0002 3V16C17.0002 16.5304 17.2109 17.0391 17.586 17.4142C17.961 17.7893 18.4698 18 19.0002 18C19.5306 18 20.0393 17.7893 20.4144 17.4142C20.7895 17.0391 21.0002 16.5304 21.0002 16V12C21.0002 11.4696 21.2109 10.9609 21.586 10.5858C21.961 10.2107 22.4698 10 23.0002 10" stroke="black" stroke-width="2" stroke-linecap="round" stroke-linejoin="round"/>
<path d="M9.00018 1L9.00018 10M9.00018 19L9.00018 10M9.00018 10C2.75179 13.5147 7.24857 10.9853 1.00018 14.5M9.00018 10L1.00018 5.5" stroke="black" stroke-width="2" stroke-linecap="round" stroke-linejoin="round"/>
<path d="M37.9362 19.2879C36.5762 19.2879 35.4162 19.0319 34.4562 18.5199C33.4962 17.9919 32.6802 17.2719 32.0082 16.3599L33.4962 15.1119C34.0882 15.8959 34.7442 16.4959 35.4642 16.9119C36.1842 17.3119 37.0322 17.5119 38.0082 17.5119C39.2082 17.5119 40.1202 17.2239 40.7442 16.6479C41.3842 16.0719 41.7042 15.3039 41.7042 14.3439C41.7042 13.5439 41.4642 12.9279 40.9842 12.4959C40.5042 12.0639 39.7122 11.7199 38.6082 11.4639L37.2402 11.1519C35.7042 10.7999 34.5282 10.2719 33.7122 9.56795C32.9122 8.84795 32.5122 7.83995 32.5122 6.54395C32.5122 5.80795 32.6482 5.15195 32.9202 4.57595C33.1922 3.99995 33.5682 3.51995 34.0482 3.13595C34.5442 2.75195 35.1282 2.46395 35.8002 2.27195C36.4882 2.06395 37.2402 1.95995 38.0562 1.95995C39.3202 1.95995 40.4002 2.19195 41.2962 2.65595C42.2082 3.11995 42.9762 3.79995 43.6002 4.69595L42.0882 5.79995C41.6242 5.15995 41.0642 4.65595 40.4082 4.28795C39.7522 3.91995 38.9362 3.73595 37.9602 3.73595C36.8882 3.73595 36.0402 3.96795 35.4162 4.43195C34.8082 4.87995 34.5042 5.55995 34.5042 6.47195C34.5042 7.27195 34.7602 7.87995 35.2722 8.29595C35.8002 8.69595 36.5922 9.01595 37.6482 9.25595L39.0162 9.56795C40.6642 9.93595 41.8562 10.4959 42.5922 11.2479C43.3282 11.9999 43.6962 12.9999 43.6962 14.2479C43.6962 15.0159 43.5602 15.7119 43.2882 16.3359C43.0322 16.9599 42.6562 17.4879 42.1602 17.9199C41.6642 18.3519 41.0562 18.6879 40.3362 18.9279C39.6322 19.1679 38.8322 19.2879 37.9362 19.2879Z" fill="black"/>
<path d="M51.5935 19.2879C50.7295 19.2879 49.9535 19.1359 49.2655 18.8319C48.5775 18.5279 47.9935 18.0959 47.5135 17.5359C47.0495 16.9759 46.6895 16.2959 46.4335 15.4959C46.1935 14.6959 46.0735 13.7999 46.0735 12.8079C46.0735 11.8159 46.1935 10.9199 46.4335 10.1199C46.6895 9.31995 47.0495 8.63995 47.5135 8.07995C47.9935 7.51995 48.5775 7.08795 49.2655 6.78395C49.9535 6.47995 50.7295 6.32795 51.5935 6.32795C52.8255 6.32795 53.8095 6.59995 54.5455 7.14395C55.2975 7.67195 55.8575 8.36795 56.2255 9.23195L54.6175 10.0479C54.3935 9.40795 54.0255 8.91195 53.5135 8.55995C53.0015 8.20795 52.3615 8.03195 51.5935 8.03195C51.0175 8.03195 50.5135 8.12795 50.0815 8.31995C49.6495 8.49595 49.2895 8.75195 49.0015 9.08795C48.7135 9.40795 48.4975 9.79995 48.3535 10.2639C48.2095 10.7119 48.1375 11.2079 48.1375 11.7519V13.8639C48.1375 14.9519 48.4255 15.8479 49.0015 16.5519C49.5935 17.2399 50.4575 17.5839 51.5935 17.5839C53.1455 17.5839 54.2655 16.8639 54.9535 15.4239L56.3455 16.3599C55.9455 17.2559 55.3455 17.9679 54.5455 18.4959C53.7615 19.0239 52.7775 19.2879 51.5935 19.2879Z" fill="black"/>
<path d="M59.0558 1.23995H60.9758V8.63195H61.0718C61.3758 7.92795 61.7998 7.36795 62.3438 6.95195C62.9038 6.53595 63.6478 6.32795 64.5758 6.32795C65.8558 6.32795 66.8638 6.74395 67.5998 7.57595C68.3518 8.39195 68.7278 9.55195 68.7278 11.0559V18.9999H66.8078V11.3919C66.8078 9.16795 65.8718 8.05595 63.9998 8.05595C63.6158 8.05595 63.2398 8.10395 62.8718 8.19995C62.5198 8.29595 62.1998 8.43995 61.9118 8.63195C61.6238 8.82395 61.3918 9.07195 61.2158 9.37595C61.0558 9.66395 60.9758 10.0079 60.9758 10.4079V18.9999H59.0558V1.23995Z" fill="black"/>
<path d="M77.3524 19.2879C76.5044 19.2879 75.7364 19.1359 75.0484 18.8319C74.3764 18.5279 73.7924 18.0959 73.2964 17.5359C72.8164 16.9599 72.4404 16.2799 72.1684 15.4959C71.9124 14.6959 71.7844 13.7999 71.7844 12.8079C71.7844 11.8319 71.9124 10.9439 72.1684 10.1439C72.4404 9.34395 72.8164 8.66395 73.2964 8.10395C73.7924 7.52795 74.3764 7.08795 75.0484 6.78395C75.7364 6.47995 76.5044 6.32795 77.3524 6.32795C78.1844 6.32795 78.9284 6.47995 79.5844 6.78395C80.2404 7.08795 80.8004 7.51195 81.2644 8.05595C81.7284 8.58395 82.0804 9.21595 82.3204 9.95195C82.5764 10.6879 82.7044 11.4959 82.7044 12.3759V13.2879H73.8004V13.8639C73.8004 14.3919 73.8804 14.8879 74.0404 15.3519C74.2164 15.7999 74.4564 16.1919 74.7604 16.5279C75.0804 16.8639 75.4644 17.1279 75.9124 17.3199C76.3764 17.5119 76.8964 17.6079 77.4724 17.6079C78.2564 17.6079 78.9364 17.4239 79.5124 17.0559C80.1044 16.6879 80.5604 16.1599 80.8804 15.4719L82.2484 16.4559C81.8484 17.3039 81.2244 17.9919 80.3764 18.5199C79.5284 19.0319 78.5204 19.2879 77.3524 19.2879ZM77.3524 7.93595C76.8244 7.93595 76.3444 8.03195 75.9124 8.22395C75.4804 8.39995 75.1044 8.65595 74.7844 8.99195C74.4804 9.32795 74.2404 9.72795 74.0644 10.1919C73.8884 10.6399 73.8004 11.1359 73.8004 11.6799V11.8479H80.6404V11.5839C80.6404 10.4799 80.3364 9.59995 79.7284 8.94395C79.1364 8.27195 78.3444 7.93595 77.3524 7.93595Z" fill="black"/>
<path d="M85.6043 18.9999V6.47195H88.6763V8.55995H88.7963C89.0363 7.90395 89.4203 7.34395 89.9483 6.87995C90.4763 6.41595 91.2123 6.18395 92.1563 6.18395C93.0203 6.18395 93.7643 6.39195 94.3883 6.80795C95.0123 7.22395 95.4763 7.85595 95.7803 8.70395H95.8283C96.0523 7.99995 96.4923 7.40795 97.1483 6.92795C97.8203 6.43195 98.6603 6.18395 99.6683 6.18395C100.9 6.18395 101.844 6.60795 102.5 7.45595C103.172 8.30395 103.508 9.51195 103.508 11.0799V18.9999H100.436V11.3919C100.436 9.59995 99.7643 8.70395 98.4203 8.70395C98.1163 8.70395 97.8203 8.75195 97.5323 8.84795C97.2603 8.92795 97.0123 9.05595 96.7883 9.23195C96.5803 9.39195 96.4123 9.59995 96.2843 9.85595C96.1563 10.0959 96.0923 10.3839 96.0923 10.7199V18.9999H93.0203V11.3919C93.0203 9.59995 92.3483 8.70395 91.0043 8.70395C90.7163 8.70395 90.4283 8.75195 90.1403 8.84795C89.8683 8.92795 89.6203 9.05595 89.3963 9.23195C89.1883 9.39195 89.0123 9.59995 88.8683 9.85595C88.7403 10.0959 88.6763 10.3839 88.6763 10.7199V18.9999H85.6043Z" fill="black"/>
<path d="M108.445 4.64795C107.805 4.64795 107.341 4.50395 107.053 4.21595C106.781 3.92795 106.645 3.55995 106.645 3.11195V2.63195C106.645 2.18395 106.781 1.81595 107.053 1.52795C107.341 1.23995 107.805 1.09595 108.445 1.09595C109.069 1.09595 109.525 1.23995 109.813 1.52795C110.101 1.81595 110.245 2.18395 110.245 2.63195V3.11195C110.245 3.55995 110.101 3.92795 109.813 4.21595C109.525 4.50395 109.069 4.64795 108.445 4.64795ZM106.909 6.47195H109.981V18.9999H106.909V6.47195Z" fill="black"/>
<path d="M113.542 18.9999V6.47195H116.614V8.55995H116.734C116.99 7.88795 117.39 7.32795 117.934 6.87995C118.494 6.41595 119.262 6.18395 120.238 6.18395C121.534 6.18395 122.526 6.60795 123.214 7.45595C123.902 8.30395 124.246 9.51195 124.246 11.0799V18.9999H121.174V11.3919C121.174 10.4959 121.014 9.82395 120.694 9.37595C120.374 8.92795 119.846 8.70395 119.11 8.70395C118.79 8.70395 118.478 8.75195 118.174 8.84795C117.886 8.92795 117.622 9.05595 117.382 9.23195C117.158 9.39195 116.974 9.59995 116.83 9.85595C116.686 10.0959 116.614 10.3839 116.614 10.7199V18.9999H113.542Z" fill="black"/>
<path d="M129.187 4.64795C128.547 4.64795 128.083 4.50395 127.795 4.21595C127.523 3.92795 127.387 3.55995 127.387 3.11195V2.63195C127.387 2.18395 127.523 1.81595 127.795 1.52795C128.083 1.23995 128.547 1.09595 129.187 1.09595C129.811 1.09595 130.267 1.23995 130.555 1.52795C130.843 1.81595 130.987 2.18395 130.987 2.63195V3.11195C130.987 3.55995 130.843 3.92795 130.555 4.21595C130.267 4.50395 129.811 4.64795 129.187 4.64795ZM127.651 6.47195H130.723V18.9999H127.651V6.47195Z" fill="black"/>
</svg>
